<svg width="187" height="39" viewBox="0 0 187 39" fill="none" xmlns="http://www.w3.org/2000/svg">
<path opacity="0.6" d="M40.8908 31.2112C41.9291 32.2687 43.3631 32.7974 45.2914 32.7974C46.5422 32.8351 47.7717 32.4462 48.8021 31.687C49.791 30.9467 50.3836 30.2067 50.6314 29.3605H56.6141C55.6748 32.5329 54.1914 34.8063 52.2135 36.1283C50.2358 37.5031 47.8624 38.1904 45.0441 38.1904C43.2522 38.2291 41.4709 37.8877 39.8031 37.1859C38.2982 36.5691 36.9452 35.5925 35.8475 34.3308C34.7368 33.0663 33.8788 31.5731 33.3258 29.9422C32.7185 28.1459 32.417 26.2478 32.4358 24.3378C32.4211 22.4626 32.7226 20.5998 33.3258 18.839C33.9075 17.1954 34.7805 15.6874 35.8968 14.3977C37.0436 13.1474 38.4029 12.1425 39.9018 11.437C41.5259 10.6969 43.2791 10.3363 45.0441 10.3794C47.1208 10.3794 48.9998 10.8025 50.5324 11.7011C52.0594 12.5194 53.3816 13.7157 54.3891 15.1905C55.4071 16.7012 56.1456 18.4061 56.5648 20.2135C57.007 22.1317 57.1733 24.1108 57.058 26.0826H39.2591C39.3085 28.4619 39.9018 30.1539 40.8908 31.2112ZM48.5548 17.3056C47.7636 16.3531 46.5275 15.8768 44.8464 15.8768C43.9109 15.8537 42.9823 16.0524 42.1271 16.4585C41.46 16.8175 40.8705 17.3218 40.3964 17.9389C39.9759 18.4781 39.6719 19.11 39.5064 19.7895C39.3209 20.3504 39.2207 20.9395 39.2098 21.5343H50.2358C49.9391 19.6851 49.3959 18.2576 48.5548 17.3058V17.3056Z" fill="white"/>
<path opacity="0.6" d="M67.1954 37.5557L58.7404 11.1724H65.8604L71.0521 29.202H71.1511L76.3427 11.1724H83.0671L74.711 37.5557H67.1954Z" fill="white"/>
<path d="M92.3626 11.1724V14.8736H92.5109C93.2816 13.4174 94.4566 12.2533 95.8732 11.5427C97.184 10.8628 98.6192 10.5017 100.076 10.4851C101.905 10.4851 103.389 10.7495 104.526 11.2782C105.609 11.7568 106.562 12.5207 107.295 13.4989C108.009 14.5079 108.485 15.6872 108.679 16.9357C108.947 18.4164 109.08 19.9215 109.075 21.4298V37.6616H102.301V22.6453C102.301 20.4775 102.004 18.8385 101.362 17.781C100.719 16.7234 99.5815 16.1948 97.9499 16.1948C96.1204 16.1948 94.7854 16.7764 93.9449 17.9396C93.1042 19.1027 92.7089 21.0594 92.7089 23.7557V37.6082H85.9349V11.1724H92.3626Z" fill="white"/>
<path d="M121.485 31.2112C122.524 32.2687 123.958 32.7974 125.886 32.7974C127.137 32.8351 128.366 32.4462 129.397 31.687C130.386 30.9467 130.978 30.2067 131.226 29.3605H137.209C136.269 32.5329 134.786 34.8063 132.808 36.1283C130.83 37.5031 128.457 38.1904 125.639 38.1904C123.847 38.2291 122.065 37.8877 120.397 37.1859C118.892 36.5691 117.539 35.5925 116.442 34.3308C115.331 33.0663 114.473 31.5731 113.92 29.9422C113.313 28.1459 113.011 26.2478 113.03 24.3378C113.016 22.4626 113.317 20.5999 113.92 18.839C114.502 17.1954 115.375 15.6874 116.491 14.3977C117.638 13.1473 118.997 12.1423 120.496 11.4367C122.12 10.6967 123.874 10.3363 125.639 10.3794C127.715 10.3794 129.594 10.8025 131.127 11.7012C132.654 12.5194 133.976 13.7157 134.984 15.1905C136.002 16.7012 136.74 18.4061 137.159 20.2135C137.601 22.1317 137.768 24.1108 137.652 26.0826H119.852C119.903 28.4619 120.447 30.1539 121.485 31.2112ZM129.149 17.3056C128.358 16.3531 127.122 15.8768 125.441 15.8768C124.505 15.8537 123.577 16.0524 122.722 16.4585C122.054 16.8176 121.465 17.3218 120.991 17.9389C120.57 18.4781 120.266 19.11 120.101 19.7895C119.915 20.3504 119.815 20.9395 119.804 21.5343H130.83C130.534 19.6851 129.94 18.2576 129.149 17.3059V17.3056Z" fill="white"/>
<path d="M139.829 11.1724H147.542L151.893 18.0457L156.195 11.1724H163.66L155.553 23.5446L164.65 37.6088H156.937L151.795 29.202L146.652 37.5018H139.038L147.938 23.5962L139.829 11.1724Z" fill="white"/>
<path d="M180.819 11.1724V15.9834H175.875V29.0435C175.875 30.2596 176.072 31.1055 176.468 31.4755C176.863 31.8986 177.605 32.11 178.742 32.11C179.106 32.12 179.469 32.1024 179.83 32.0572C180.176 32.0044 180.522 31.9514 180.819 31.8986V37.503C180.226 37.6088 179.632 37.6616 178.891 37.7144C178.198 37.7672 177.506 37.7672 176.814 37.7672C175.822 37.7793 174.83 37.7086 173.847 37.5558C172.979 37.4177 172.142 37.1131 171.375 36.6568C170.65 36.2155 170.065 35.5527 169.694 34.7534C169.241 33.749 169.021 32.6429 169.051 31.5283V15.984H164.947V11.1196H169.051V3.18872H175.825V11.1196H180.819L180.819 11.1724Z" fill="white"/>
<path opacity="0.6" d="M21.756 2.71291V14.3448C20.2726 13.0759 19.1353 12.0705 17.652 11.4369C16.064 10.7589 14.3678 10.4177 12.658 10.4324C10.6307 10.4324 8.65301 10.8024 7.12033 11.5955C5.58764 12.3886 4.20302 13.3928 3.21431 14.662C2.17018 15.9503 1.36475 17.4392 0.840979 19.0494C0.289789 20.8052 0.00595718 22.6443 0.000333747 24.4964V24.4964V24.9722C-0.0107923 26.7865 0.256333 28.5905 0.791081 30.3125C1.16969 31.6151 1.73711 32.8461 2.47264 33.9607L9.54383 25.0253L5.43931 20.954H21.756V37.2916V38.3492H29.1233V0.650879L21.756 2.71291Z" fill="white"/>
<path d="M184.625 8.3175C184.3 8.32933 183.978 8.25679 183.685 8.10611C183.413 7.97385 183.163 7.79533 182.944 7.57748C182.735 7.34789 182.567 7.07902 182.449 6.78439C182.308 6.47107 182.241 6.12586 182.252 5.77845C182.241 5.43145 182.309 5.08676 182.45 4.77396C182.574 4.48282 182.741 4.215 182.944 3.98087C183.159 3.75736 183.411 3.57814 183.686 3.45224C183.982 3.31276 184.302 3.24072 184.626 3.24072C184.949 3.24072 185.269 3.31276 185.565 3.45224C185.837 3.58451 186.088 3.76302 186.307 3.98087C186.526 4.20107 186.696 4.47247 186.801 4.77396C186.942 5.08677 187.01 5.43145 186.999 5.77845C187.01 6.12544 186.942 6.47013 186.801 6.78293C186.677 7.07407 186.51 7.34189 186.307 7.57602C186.092 7.79954 185.841 7.97875 185.565 8.10465C185.272 8.25607 184.95 8.32912 184.625 8.3175V8.3175ZM184.625 8.00027C184.895 8.00377 185.164 7.94986 185.415 7.84165C185.659 7.73293 185.878 7.57081 186.058 7.36579C186.236 7.17031 186.371 6.93575 186.454 6.67855C186.555 6.39137 186.606 6.08651 186.602 5.77961C186.606 5.49004 186.555 5.20264 186.454 4.93404C186.363 4.68056 186.229 4.44746 186.058 4.24679C185.878 4.04177 185.659 3.87966 185.415 3.77094C184.907 3.55962 184.343 3.55962 183.834 3.77094C183.591 3.87966 183.372 4.04177 183.191 4.24679C183.015 4.45394 182.865 4.68502 182.746 4.93404C182.649 5.20401 182.599 5.49049 182.598 5.77961C182.594 6.08651 182.645 6.39136 182.746 6.67855C182.835 6.94553 182.989 7.18261 183.191 7.36579C183.372 7.57081 183.591 7.73293 183.834 7.84165C184.085 7.94988 184.354 8.00379 184.625 8.00027V8.00027ZM185.811 7.20718H185.416L184.674 5.88546H184.081V7.20718H183.736V4.35205H184.922C185.186 4.31729 185.452 4.39306 185.664 4.56344C185.731 4.631 185.783 4.71325 185.817 4.80453C185.851 4.8958 185.867 4.99391 185.862 5.09207C185.873 5.21786 185.857 5.34481 185.812 5.46209C185.762 5.56244 185.695 5.65209 185.615 5.72655C185.516 5.77932 185.466 5.83239 185.367 5.88516C185.258 5.93234 185.139 5.95044 185.021 5.93794L185.811 7.20718ZM184.575 5.621H184.872C184.973 5.62939 185.075 5.61128 185.169 5.56822C185.261 5.53555 185.346 5.48137 185.416 5.4096C185.515 5.30376 185.515 5.25098 185.515 5.09237C185.528 5.00072 185.51 4.90713 185.465 4.82791L185.317 4.66929C185.259 4.62734 185.189 4.60865 185.119 4.61651H184.13V5.621H184.575Z" fill="white"/>
</svg>
